<svg width="85" height="37" viewBox="0 0 85 37" fill="none" xmlns="http://www.w3.org/2000/svg">
<path opacity="0.3" d="M26 14.8008C17.8298 15.5375 20 30 12 28.5C4 27 1 24.3008 1 24.3008V37H84V9.30077C84 9.30077 81.4185 12.6652 79 13.3008C75.8343 14.1327 74.2723 10.7244 71 10.8008C66.0117 10.9172 67.4892 17.0717 62.5 17C54.8059 16.8894 61.1948 1.3499 53.5 1.30078C44.6528 1.2443 48.7427 20.944 40 22.3008C33.8709 23.252 32.1774 14.2437 26 14.8008Z" fill="url(#paint0_linear_62_1029)"/>
<path d="M1 24.3008C1 24.3008 7.77298 28.8605 13 28.5C20.792 27.9626 18.2655 15.8874 26 14.8009C32.3133 13.914 34.2383 23.4989 40.5 22.3009C49.1196 20.6516 44.2293 1.60388 53 1.30079C60.8058 1.03104 54.7203 17.6928 62.5 17C66.9776 16.6013 65.5091 10.9981 70 10.8009C73.3334 10.6545 74.6854 14.184 78 13.8009C82.1239 13.3242 84 9.30084 84 9.30084" stroke="#0FAE96" stroke-linecap="round"/>
<defs>
<linearGradient id="paint0_linear_62_1029" x1="49.5" y1="-15.5" x2="55.2165" y2="24.9809" gradientUnits="userSpaceOnUse">
<stop stop-color="#00A58C"/>
<stop offset="1" stop-color="#00A58C" stop-opacity="0"/>
</linearGradient>
</defs>
</svg>
