<svg width="48" height="48" viewBox="0 0 48 48" fill="none" xmlns="http://www.w3.org/2000/svg">
<g clip-path="url(#clip0_60_1387)">
<circle cx="24" cy="24" r="24" fill="#2C223B"/>
<circle cx="27" cy="24" r="9" stroke="#ECF1F0" stroke-width="2"/>
<circle cx="21" cy="24" r="8" fill="#2C223B"/>
<mask id="path-4-inside-1_60_1387" fill="white">
<path fill-rule="evenodd" clip-rule="evenodd" d="M21 34C26.5228 34 31 29.5228 31 24C31 18.4772 26.5228 14 21 14C15.4772 14 11 18.4772 11 24C11 29.5228 15.4772 34 21 34ZM23.4256 27.3961C23.4055 27.4026 23.3856 27.4094 23.3659 27.4167L23.3582 27.4196C23.2738 27.4512 23.1918 27.4906 23.1139 27.5371C22.7114 27.7776 22.2687 27.949 21.8039 28.0415C21.0046 28.2005 20.176 28.1189 19.4231 27.807C18.6701 27.4951 18.0266 26.9669 17.5738 26.2893C17.121 25.6117 16.8794 24.815 16.8794 24C16.8794 23.185 17.121 22.3883 17.5738 21.7107C18.0266 21.0331 18.6701 20.5049 19.4231 20.193C20.176 19.8811 21.0046 19.7995 21.8039 19.9585C22.2687 20.051 22.7114 20.2224 23.1139 20.4629C23.1918 20.5094 23.2738 20.5488 23.3582 20.5804L23.3659 20.5833C23.3856 20.5906 23.4055 20.5974 23.4256 20.6039C23.8471 20.7393 24.3167 20.6833 24.6326 20.3674C25.0296 19.9704 25.0335 19.3185 24.5766 18.9922C23.8695 18.4872 23.0603 18.1354 22.2006 17.9644C21.0068 17.727 19.7695 17.8488 18.645 18.3146C17.5206 18.7804 16.5595 19.5691 15.8833 20.5811C15.2071 21.5931 14.8462 22.7829 14.8462 24C14.8462 25.2171 15.2071 26.4069 15.8833 27.4189C16.5595 28.4309 17.5206 29.2196 18.645 29.6854C19.7695 30.1512 21.0068 30.273 22.2006 30.0356C23.0603 29.8646 23.8695 29.5128 24.5766 29.0078C25.0335 28.6815 25.0296 28.0296 24.6326 27.6326C24.3167 27.3167 23.8471 27.2607 23.4256 27.3961Z"/>
</mask>
<path fill-rule="evenodd" clip-rule="evenodd" d="M21 34C26.5228 34 31 29.5228 31 24C31 18.4772 26.5228 14 21 14C15.4772 14 11 18.4772 11 24C11 29.5228 15.4772 34 21 34ZM23.4256 27.3961C23.4055 27.4026 23.3856 27.4094 23.3659 27.4167L23.3582 27.4196C23.2738 27.4512 23.1918 27.4906 23.1139 27.5371C22.7114 27.7776 22.2687 27.949 21.8039 28.0415C21.0046 28.2005 20.176 28.1189 19.4231 27.807C18.6701 27.4951 18.0266 26.9669 17.5738 26.2893C17.121 25.6117 16.8794 24.815 16.8794 24C16.8794 23.185 17.121 22.3883 17.5738 21.7107C18.0266 21.0331 18.6701 20.5049 19.4231 20.193C20.176 19.8811 21.0046 19.7995 21.8039 19.9585C22.2687 20.051 22.7114 20.2224 23.1139 20.4629C23.1918 20.5094 23.2738 20.5488 23.3582 20.5804L23.3659 20.5833C23.3856 20.5906 23.4055 20.5974 23.4256 20.6039C23.8471 20.7393 24.3167 20.6833 24.6326 20.3674C25.0296 19.9704 25.0335 19.3185 24.5766 18.9922C23.8695 18.4872 23.0603 18.1354 22.2006 17.9644C21.0068 17.727 19.7695 17.8488 18.645 18.3146C17.5206 18.7804 16.5595 19.5691 15.8833 20.5811C15.2071 21.5931 14.8462 22.7829 14.8462 24C14.8462 25.2171 15.2071 26.4069 15.8833 27.4189C16.5595 28.4309 17.5206 29.2196 18.645 29.6854C19.7695 30.1512 21.0068 30.273 22.2006 30.0356C23.0603 29.8646 23.8695 29.5128 24.5766 29.0078C25.0335 28.6815 25.0296 28.0296 24.6326 27.6326C24.3167 27.3167 23.8471 27.2607 23.4256 27.3961Z" fill="#ECF1F0"/>
<path d="M23.3659 27.4167L22.6744 25.54L22.669 25.5421L23.3659 27.4167ZM23.4256 27.3961L22.8137 25.492L22.8136 25.4921L23.4256 27.3961ZM23.3582 27.4196L22.6613 25.5449L22.6564 25.5467L23.3582 27.4196ZM23.1139 27.5371L24.1399 29.2539L24.14 29.2539L23.1139 27.5371ZM21.8039 28.0415L22.1941 30.003L22.1941 30.003L21.8039 28.0415ZM19.4231 27.807L18.6577 29.6547H18.6577L19.4231 27.807ZM17.5738 26.2893L15.9109 27.4005H15.9109L17.5738 26.2893ZM17.5738 21.7107L15.9109 20.5996L15.9109 20.5996L17.5738 21.7107ZM19.4231 20.193L18.6577 18.3453H18.6577L19.4231 20.193ZM21.8039 19.9585L22.1941 17.997L21.8039 19.9585ZM23.1139 20.4629L22.0879 22.1797L22.0879 22.1797L23.1139 20.4629ZM23.3582 20.5804L22.6564 22.4533L22.6616 22.4552L23.3582 20.5804ZM23.3659 20.5833L22.6693 22.4581L22.6743 22.4599L23.3659 20.5833ZM23.4256 20.6039L24.0374 18.6998L24.0374 18.6998L23.4256 20.6039ZM24.6326 20.3674L23.2184 18.9532L23.2184 18.9532L24.6326 20.3674ZM24.5766 18.9922L23.4142 20.6198L23.4142 20.6198L24.5766 18.9922ZM22.2006 17.9644L22.5907 16.0028V16.0028L22.2006 17.9644ZM18.645 18.3146L17.8797 16.4668L17.8797 16.4668L18.645 18.3146ZM18.645 29.6854L17.8797 31.5332H17.8797L18.645 29.6854ZM22.2006 30.0356L22.5907 31.9972H22.5907L22.2006 30.0356ZM24.5766 29.0078L23.4142 27.3802H23.4142L24.5766 29.0078ZM29 24C29 28.4183 25.4183 32 21 32V36C27.6274 36 33 30.6274 33 24H29ZM21 16C25.4183 16 29 19.5817 29 24H33C33 17.3726 27.6274 12 21 12V16ZM13 24C13 19.5817 16.5817 16 21 16V12C14.3726 12 9 17.3726 9 24H13ZM21 32C16.5817 32 13 28.4183 13 24H9C9 30.6274 14.3726 36 21 36V32ZM24.0574 29.2934C24.0509 29.2958 24.0442 29.298 24.0375 29.3002L22.8136 25.4921C22.7668 25.5071 22.7204 25.5231 22.6744 25.5401L24.0574 29.2934ZM24.0551 29.2942L24.0628 29.2914L22.669 25.5421L22.6613 25.5449L24.0551 29.2942ZM24.14 29.2539C24.1139 29.2694 24.0873 29.2822 24.06 29.2924L22.6564 25.5467C22.4603 25.6202 22.2697 25.7117 22.0879 25.8203L24.14 29.2539ZM22.1941 30.003C22.8844 29.8657 23.5421 29.6112 24.1399 29.2539L22.0879 25.8203C21.8807 25.9441 21.6529 26.0323 21.4137 26.0799L22.1941 30.003ZM18.6577 29.6547C19.7761 30.118 21.0068 30.2392 22.1941 30.003L21.4137 26.0799C21.0024 26.1617 20.576 26.1197 20.1885 25.9592L18.6577 29.6547ZM15.9109 27.4005C16.5834 28.407 17.5393 29.1915 18.6577 29.6547L20.1885 25.9592C19.801 25.7987 19.4698 25.5269 19.2367 25.1782L15.9109 27.4005ZM14.8794 24C14.8794 25.2105 15.2383 26.3939 15.9109 27.4005L19.2367 25.1782C19.0037 24.8294 18.8794 24.4194 18.8794 24H14.8794ZM15.9109 20.5996C15.2383 21.6061 14.8794 22.7894 14.8794 24H18.8794C18.8794 23.5806 19.0037 23.1706 19.2367 22.8218L15.9109 20.5996ZM18.6577 18.3453C17.5393 18.8085 16.5834 19.593 15.9109 20.5996L19.2367 22.8218C19.4698 22.4731 19.801 22.2013 20.1885 22.0408L18.6577 18.3453ZM22.1941 17.997C21.0068 17.7608 19.7761 17.882 18.6577 18.3453L20.1885 22.0408C20.576 21.8803 21.0024 21.8383 21.4137 21.9201L22.1941 17.997ZM24.1399 18.7461C23.5421 18.3888 22.8844 18.1343 22.1941 17.997L21.4137 21.9201C21.6529 21.9677 21.8807 22.0559 22.0879 22.1797L24.1399 18.7461ZM24.0599 18.7076C24.0873 18.7178 24.1139 18.7306 24.1399 18.7461L22.0879 22.1797C22.2697 22.2883 22.4603 22.3798 22.6564 22.4533L24.0599 18.7076ZM24.0624 18.7085L24.0548 18.7057L22.6616 22.4552L22.6693 22.4581L24.0624 18.7085ZM24.0374 18.6998C24.0442 18.7019 24.0509 18.7042 24.0575 18.7067L22.6743 22.4599C22.7204 22.4769 22.7669 22.4929 22.8137 22.508L24.0374 18.6998ZM23.2184 18.9532C23.5676 18.604 23.9472 18.6708 24.0374 18.6998L22.8137 22.508C23.7469 22.8079 25.0657 22.7627 26.0468 21.7816L23.2184 18.9532ZM23.4142 20.6198C23.0915 20.3892 22.9338 20.0277 22.9255 19.7047C22.9177 19.4032 23.034 19.1376 23.2184 18.9532L26.0468 21.7816C27.1478 20.6806 27.388 18.5424 25.739 17.3647L23.4142 20.6198ZM21.8104 19.926C22.3907 20.0414 22.9369 20.2789 23.4142 20.6198L25.739 17.3647C24.8022 16.6956 23.7299 16.2294 22.5907 16.0028L21.8104 19.926ZM19.4104 20.1623C20.1694 19.848 21.0046 19.7657 21.8104 19.926L22.5907 16.0028C21.009 15.6882 19.3696 15.8497 17.8797 16.4668L19.4104 20.1623ZM17.5462 21.6922C18.0026 21.0092 18.6514 20.4767 19.4104 20.1623L17.8797 16.4668C16.3897 17.084 15.1163 18.1291 14.2203 19.47L17.5462 21.6922ZM16.8462 24C16.8462 23.1784 17.0898 22.3753 17.5462 21.6922L14.2203 19.47C13.3244 20.8109 12.8462 22.3873 12.8462 24H16.8462ZM17.5462 26.3078C17.0898 25.6247 16.8462 24.8216 16.8462 24H12.8462C12.8462 25.6127 13.3244 27.1891 14.2203 28.53L17.5462 26.3078ZM19.4104 27.8377C18.6514 27.5233 18.0026 26.9909 17.5462 26.3078L14.2203 28.53C15.1163 29.8709 16.3897 30.916 17.8797 31.5332L19.4104 27.8377ZM21.8104 28.074C21.0046 28.2343 20.1694 28.152 19.4104 27.8377L17.8797 31.5332C19.3696 32.1503 21.009 32.3118 22.5907 31.9972L21.8104 28.074ZM23.4142 27.3802C22.9369 27.7211 22.3907 27.9586 21.8104 28.074L22.5907 31.9972C23.7299 31.7706 24.8022 31.3044 25.739 30.6353L23.4142 27.3802ZM23.2184 29.0468C23.034 28.8624 22.9177 28.5968 22.9255 28.2953C22.9338 27.9723 23.0915 27.6108 23.4142 27.3802L25.739 30.6353C27.388 29.4576 27.1478 27.3194 26.0468 26.2184L23.2184 29.0468ZM24.0374 29.3002C23.9472 29.3292 23.5676 29.396 23.2184 29.0468L26.0468 26.2184C25.0657 25.2373 23.7469 25.1921 22.8137 25.492L24.0374 29.3002Z" fill="#ECF1F0" mask="url(#path-4-inside-1_60_1387)"/>
</g>
<defs>
<clipPath id="clip0_60_1387">
<rect width="48" height="48" fill="white"/>
</clipPath>
</defs>
</svg>
