<svg width="48" height="48" viewBox="0 0 48 48" fill="none" xmlns="http://www.w3.org/2000/svg">
<g clip-path="url(#clip0_60_1363)">
<circle cx="24" cy="24" r="24" fill="#2C223B"/>
<path d="M22.5 30.78C19.625 30.78 17.0835 29.308 15.6 27.1C15.6345 24.8 20.2 23.535 22.5 23.535C24.8 23.535 29.3655 24.8 29.4 27.1C28.6397 28.2321 27.6127 29.1598 26.4095 29.8016C25.2063 30.4433 23.8637 30.7793 22.5 30.78ZM22.5 14.45C23.415 14.45 24.2925 14.8135 24.9395 15.4605C25.5865 16.1075 25.95 16.985 25.95 17.9C25.95 18.815 25.5865 19.6925 24.9395 20.3395C24.2925 20.9865 23.415 21.35 22.5 21.35C21.585 21.35 20.7075 20.9865 20.0605 20.3395C19.4135 19.6925 19.05 18.815 19.05 17.9C19.05 16.985 19.4135 16.1075 20.0605 15.4605C20.7075 14.8135 21.585 14.45 22.5 14.45ZM22.5 11C20.9898 11 19.4944 11.2975 18.0991 11.8754C16.7039 12.4533 15.4361 13.3004 14.3683 14.3683C12.2116 16.5249 11 19.45 11 22.5C11 25.55 12.2116 28.4751 14.3683 30.6317C15.4361 31.6996 16.7039 32.5467 18.0991 33.1246C19.4944 33.7025 20.9898 34 22.5 34C25.55 34 28.4751 32.7884 30.6317 30.6317C32.7884 28.4751 34 25.55 34 22.5C34 16.1405 28.825 11 22.5 11Z" fill="#ECF1F0"/>
<circle cx="31" cy="31" r="7" fill="#2C223B"/>
<path fill-rule="evenodd" clip-rule="evenodd" d="M31 26C28.2386 26 26 28.2386 26 31C26 33.7614 28.2386 36 31 36C33.7614 36 36 33.7614 36 31C36 28.2386 33.7614 26 31 26ZM31.4545 32.8182C31.4545 32.9387 31.4067 33.0544 31.3214 33.1396C31.2362 33.2248 31.1206 33.2727 31 33.2727C30.8794 33.2727 30.7638 33.2248 30.6786 33.1396C30.5933 33.0544 30.5455 32.9387 30.5455 32.8182V31.4545H29.1818C29.0613 31.4545 28.9457 31.4067 28.8604 31.3214C28.7752 31.2362 28.7273 31.1206 28.7273 31C28.7273 30.8794 28.7752 30.7638 28.8604 30.6786C28.9457 30.5933 29.0613 30.5455 29.1818 30.5455H30.5455V29.1818C30.5455 29.0613 30.5933 28.9457 30.6786 28.8604C30.7638 28.7752 30.8794 28.7273 31 28.7273C31.1206 28.7273 31.2362 28.7752 31.3214 28.8604C31.4067 28.9457 31.4545 29.0613 31.4545 29.1818V30.5455H32.8182C32.9387 30.5455 33.0544 30.5933 33.1396 30.6786C33.2248 30.7638 33.2727 30.8794 33.2727 31C33.2727 31.1206 33.2248 31.2362 33.1396 31.3214C33.0544 31.4067 32.9387 31.4545 32.8182 31.4545H31.4545V32.8182Z" fill="#ECF1F0"/>
</g>
<defs>
<clipPath id="clip0_60_1363">
<rect width="48" height="48" fill="white"/>
</clipPath>
</defs>
</svg>
