<svg width="48" height="48" viewBox="0 0 48 48" fill="none" xmlns="http://www.w3.org/2000/svg">
<g clip-path="url(#clip0_60_1394)">
<circle cx="24" cy="24" r="24" fill="#2C223B"/>
<circle cx="24" cy="25" r="3" fill="#2C223B"/>
<path d="M36.6058 27.1463C34.8704 34.1121 27.8168 38.3479 20.8521 36.6103C13.8906 34.8878 9.6505 27.8191 11.3903 20.8641C13.1236 13.8929 20.1794 9.65384 27.1397 11.3882C34.1055 13.127 38.3435 20.1794 36.6058 27.1485V27.1463ZM29.7267 22.1489C29.9867 20.4264 28.6716 19.4948 26.8667 18.8665L27.4517 16.534L26.0272 16.1766L25.4584 18.4591C25.0847 18.3649 24.6947 18.2782 24.3057 18.1883L24.8756 15.8841L23.4456 15.5266L22.8606 17.872C22.5518 17.7994 22.2485 17.729 21.9506 17.6553L19.9844 17.1678L19.6052 18.692C19.6052 18.692 20.6614 18.9358 20.6398 18.9477C21.2193 19.095 21.3223 19.4742 21.306 19.7775L19.7059 26.1908C19.6247 26.3707 19.4459 26.6307 19.0408 26.531C19.057 26.5527 18.0008 26.271 18.0008 26.271L17.2858 27.9068L19.1383 28.3683L20.1458 28.6305L19.5608 31.003L20.9908 31.3572L21.5758 29.0064C21.9658 29.1147 22.3395 29.2122 22.7133 29.3021L22.1608 31.6356L23.5908 31.9931L24.1812 29.6206C26.6078 30.0832 28.4386 29.8991 29.2078 27.6988C29.8253 25.9254 29.1753 24.9038 27.8894 24.2365C28.8146 24.0274 29.5144 23.4132 29.7094 22.1457H29.7202L29.7267 22.1489ZM26.4659 26.7206C26.0282 28.4972 23.0458 27.5331 22.0784 27.2947L22.8584 24.1531C23.8291 24.4023 26.9285 24.8789 26.4659 26.7206ZM26.9101 22.1273C26.5092 23.7414 24.0262 22.9235 23.2213 22.7231L23.9298 19.8631C24.7358 20.0581 27.3282 20.4308 26.909 22.1208V22.1273H26.9101Z" fill="#ECF1F0"/>
</g>
<defs>
<clipPath id="clip0_60_1394">
<rect width="48" height="48" fill="white"/>
</clipPath>
</defs>
</svg>
