<svg width="84" height="38" viewBox="0 0 84 38" fill="none" xmlns="http://www.w3.org/2000/svg">
<path opacity="0.3" d="M21.4789 17.7322C16 18.4214 17.6183 24.06 13 28C8.51309 31.8279 0.5 30.4214 0.5 30.4214V37.1917H83V2.92144C83 2.92144 76.1034 2.81031 71 4.92147C66.3436 6.84773 66.5 12.4216 60.5 12.4215C54.5 12.4214 54 -1.57858 48.5 1.42144C43 4.42146 45.2618 15.8501 40 19.9214C37.3803 21.9484 36.4337 23.3325 32.5 22.9214C28.4539 22.4986 26.9578 17.043 21.4789 17.7322Z" fill="url(#paint0_linear_62_1020)"/>
<path d="M0.5 30C0.5 30 8.48395 31.4321 13 27.5C17.4589 23.6176 16.2651 17.4644 22.1773 17.4619C26.2455 17.4602 28.4539 22.4986 32.5 22.9214C36.4337 23.3325 37.8085 22.681 40.3181 19.6241C45 13.9214 43.5 3.9215 48.5 1.42138C53.5 -1.07875 55.5 8.42139 55.5 8.42139C55.5 8.42139 55.9759 11.4313 58.6984 12.1511C64.5291 13.6929 66.4651 6.52269 72.1984 4.65114C77.0814 3.05717 83 2.92143 83 2.92143" stroke="#0FAE96" stroke-linecap="round"/>
<defs>
<linearGradient id="paint0_linear_62_1020" x1="35" y1="-23.687" x2="48.7119" y2="26.8038" gradientUnits="userSpaceOnUse">
<stop stop-color="#00A58C"/>
<stop offset="1" stop-color="#00A58C" stop-opacity="0"/>
</linearGradient>
</defs>
</svg>
