<svg width="48" height="48" viewBox="0 0 48 48" fill="none" xmlns="http://www.w3.org/2000/svg">
<g clip-path="url(#clip0_60_1369)">
<circle cx="24" cy="24" r="24" fill="#2C223B"/>
<path d="M35.9999 30.1177C35.9999 31.943 35.273 33.6936 33.979 34.9843C32.685 36.275 30.9299 37.0001 29.0999 37.0001C27.27 37.0001 25.5149 36.275 24.2209 34.9843C22.9269 33.6936 22.2 31.943 22.2 30.1177C22.2 28.2924 22.9269 26.5418 24.2209 25.2511C25.5149 23.9605 27.27 23.2354 29.0999 23.2354C30.9299 23.2354 32.685 23.9605 33.979 25.2511C35.273 26.5418 35.9999 28.2924 35.9999 30.1177ZM28.3639 27.1109C28.2645 27.0428 28.149 27.0017 28.0288 26.9918C27.9086 26.9819 27.7879 27.0034 27.6785 27.0543C27.5893 27.0935 27.5086 27.1496 27.4409 27.2195C27.298 27.3655 27.2182 27.5615 27.2185 27.7655V32.4684C27.2176 32.5698 27.2368 32.6703 27.2749 32.7643C27.3131 32.8583 27.3695 32.9438 27.4409 33.0159C27.5109 33.0854 27.5923 33.1423 27.6816 33.1842C27.8372 33.2553 28.0137 33.2662 28.1769 33.2148C28.2476 33.1915 28.3147 33.1586 28.3762 33.1169L31.8967 30.7203C32.0039 30.6499 32.0902 30.5522 32.1467 30.4374C32.2049 30.3217 32.2349 30.1938 32.2341 30.0644C32.2333 29.9349 32.2018 29.8075 32.1421 29.6925C32.0821 29.5793 31.9939 29.4835 31.886 29.4142L28.3639 27.1109Z" fill="#ECF1F0"/>
<path fill-rule="evenodd" clip-rule="evenodd" d="M13.8982 11.8959C14.4733 11.3223 15.2533 11 16.0667 11H28.3333C29.1467 11 29.9267 11.3223 30.5018 11.8959C31.0769 12.4695 31.4 13.2476 31.4 14.0588V22.0225C29.9555 21.6134 28.4277 21.5965 26.9745 21.9734C25.5213 22.3503 24.1953 23.1074 23.1335 24.1664C22.0718 25.2255 21.3127 26.5481 20.9349 27.9976C20.557 29.4471 20.574 30.971 20.9841 32.4118H14.5333C14.5333 32.8174 14.6949 33.2064 14.9824 33.4932C15.27 33.78 15.66 33.9412 16.0667 33.9412H21.5867C21.8657 34.486 22.2035 34.9988 22.5941 35.4706H16.0667C15.2533 35.4706 14.4733 35.1483 13.8982 34.5747C13.3231 34.001 13 33.223 13 32.4118V14.0588C13 13.2476 13.3231 12.4695 13.8982 11.8959ZM27.1833 14.8235H17.2167C16.9117 14.8235 16.6192 14.9444 16.4035 15.1595C16.1878 15.3746 16.0667 15.6664 16.0667 15.9706C16.0667 16.2748 16.1878 16.5666 16.4035 16.7817C16.6192 16.9968 16.9117 17.1176 17.2167 17.1176H27.1833C27.4883 17.1176 27.7808 16.9968 27.9965 16.7817C28.2122 16.5666 28.3333 16.2748 28.3333 15.9706C28.3333 15.6664 28.2122 15.3746 27.9965 15.1595C27.7808 14.9444 27.4883 14.8235 27.1833 14.8235ZM17.0077 20C16.4554 20 16.0077 20.4477 16.0077 21C16.0077 21.5523 16.4554 22 17.0077 22H21.0231C21.5754 22 22.0231 21.5523 22.0231 21C22.0231 20.4477 21.5754 20 21.0231 20H17.0077Z" fill="#ECF1F0"/>
</g>
<defs>
<clipPath id="clip0_60_1369">
<rect width="48" height="48" fill="white"/>
</clipPath>
</defs>
</svg>
