<svg width="48" height="48" viewBox="0 0 48 48" fill="none" xmlns="http://www.w3.org/2000/svg">
<g clip-path="url(#clip0_60_1383)">
<circle cx="24" cy="24" r="24" fill="#2C223B"/>
<circle cx="24" cy="24" r="12" fill="#ECF1F0" stroke="#ECF1F0" stroke-width="2"/>
<mask id="path-3-inside-1_60_1383" fill="white">
<path d="M28.7224 28.7224C29.2385 29.2385 29.2435 30.0859 28.6496 30.5101C27.7304 31.1666 26.6783 31.624 25.5607 31.8463C24.0089 32.155 22.4003 31.9965 20.9385 31.391C19.4767 30.7855 18.2273 29.7602 17.3482 28.4446C16.4692 27.129 16 25.5823 16 24C16 22.4177 16.4692 20.871 17.3482 19.5554C18.2273 18.2398 19.4767 17.2145 20.9385 16.609C22.4003 16.0035 24.0089 15.845 25.5607 16.1537C26.6783 16.376 27.7304 16.8334 28.6496 17.4899C29.2435 17.9141 29.2385 18.7615 28.7224 19.2776C28.2062 19.7938 27.3746 19.7762 26.7481 19.4018C26.2249 19.0891 25.6493 18.8663 25.0451 18.7461C24.0059 18.5394 22.9289 18.6455 21.95 19.0509C20.9712 19.4564 20.1346 20.143 19.5459 21.0239C18.9573 21.9048 18.6432 22.9405 18.6432 24C18.6432 25.0595 18.9573 26.0952 19.5459 26.9761C20.1346 27.857 20.9712 28.5436 21.95 28.9491C22.9289 29.3545 24.0059 29.4606 25.0451 29.2539C25.6493 29.1337 26.2249 28.9109 26.7481 28.5982C27.3746 28.2238 28.2062 28.2062 28.7224 28.7224Z"/>
</mask>
<path d="M28.7224 28.7224C29.2385 29.2385 29.2435 30.0859 28.6496 30.5101C27.7304 31.1666 26.6783 31.624 25.5607 31.8463C24.0089 32.155 22.4003 31.9965 20.9385 31.391C19.4767 30.7855 18.2273 29.7602 17.3482 28.4446C16.4692 27.129 16 25.5823 16 24C16 22.4177 16.4692 20.871 17.3482 19.5554C18.2273 18.2398 19.4767 17.2145 20.9385 16.609C22.4003 16.0035 24.0089 15.845 25.5607 16.1537C26.6783 16.376 27.7304 16.8334 28.6496 17.4899C29.2435 17.9141 29.2385 18.7615 28.7224 19.2776C28.2062 19.7938 27.3746 19.7762 26.7481 19.4018C26.2249 19.0891 25.6493 18.8663 25.0451 18.7461C24.0059 18.5394 22.9289 18.6455 21.95 19.0509C20.9712 19.4564 20.1346 20.143 19.5459 21.0239C18.9573 21.9048 18.6432 22.9405 18.6432 24C18.6432 25.0595 18.9573 26.0952 19.5459 26.9761C20.1346 27.857 20.9712 28.5436 21.95 28.9491C22.9289 29.3545 24.0059 29.4606 25.0451 29.2539C25.6493 29.1337 26.2249 28.9109 26.7481 28.5982C27.3746 28.2238 28.2062 28.2062 28.7224 28.7224Z" stroke="#2C223B" stroke-width="4" stroke-linejoin="round" mask="url(#path-3-inside-1_60_1383)"/>
</g>
<defs>
<clipPath id="clip0_60_1383">
<rect width="48" height="48" fill="white"/>
</clipPath>
</defs>
</svg>
