<svg width="48" height="48" viewBox="0 0 48 48" fill="none" xmlns="http://www.w3.org/2000/svg">
<g clip-path="url(#clip0_60_1359)">
<circle cx="24" cy="24" r="24" fill="#2C223B"/>
<path fill-rule="evenodd" clip-rule="evenodd" d="M23.5 11L35 15.3726V21.4529C35 26.7881 32.93 30.6684 30.4831 33.2091C29.3981 34.3443 28.1406 35.2957 26.7583 36.027C25.5917 36.6333 24.4251 37 23.5 37C22.5749 37 21.4083 36.6333 20.2417 36.0283C18.8594 35.2966 17.6018 34.3447 16.5169 33.2091C14.0687 30.6684 12 26.7881 12 21.4529V15.3726L23.5 11ZM28.2367 22.3688C28.4695 22.1245 28.5983 21.7972 28.5954 21.4575C28.5924 21.1178 28.4581 20.7929 28.2212 20.5527C27.9842 20.3124 27.6638 20.1762 27.3287 20.1732C26.9937 20.1703 26.6709 20.3009 26.4299 20.5369L22.2222 24.8033L20.5701 23.1281C20.3291 22.8921 20.0063 22.7615 19.6713 22.7644C19.3362 22.7674 19.0158 22.9036 18.7788 23.1438C18.5419 23.3841 18.4076 23.709 18.4046 24.0487C18.4017 24.3884 18.5305 24.7157 18.7633 24.96L21.3188 27.5512C21.5585 27.7941 21.8834 27.9306 22.2222 27.9306C22.561 27.9306 22.886 27.7941 23.1256 27.5512L28.2367 22.3688Z" fill="#ECF1F0"/>
</g>
<defs>
<clipPath id="clip0_60_1359">
<rect width="48" height="48" fill="white"/>
</clipPath>
</defs>
</svg>
