<svg width="83" height="38" viewBox="0 0 83 38" fill="none" xmlns="http://www.w3.org/2000/svg">
<path opacity="0.3" d="M16.5 28.2957C8.77755 30.2952 1 21.2957 1 21.2957V37.1829H83V19.2957C83 19.2957 79.441 8.04728 73 9.29565C68.2076 10.2245 69.2158 18.0345 64.5 19.2957C56.9901 21.3042 63.3281 3.88996 56 1.2957C45.7896 -2.31892 51.359 28.4592 41 25.2957C34.7252 23.3794 38.9777 12.3374 32.5 11.2957C24.4007 9.9931 24.4414 26.2394 16.5 28.2957Z" fill="url(#paint0_linear_62_1032)"/>
<path d="M1 21.2957C1 21.2957 8.79745 30.3055 16.5 28.2957C24.4029 26.2336 24.4342 10.0112 32.5 11.2957C38.9793 12.3274 34.7252 23.3794 41 25.2957C51.359 28.4592 45.7896 -2.31892 56 1.2957C63.3281 3.88996 56.9901 21.3042 64.5 19.2957C69.2158 18.0345 68.2043 10.207 73 9.29565C79.3874 8.08186 82.5 19.2957 82.5 19.2957" stroke="#C10404" stroke-linecap="round"/>
<defs>
<linearGradient id="paint0_linear_62_1032" x1="33.5" y1="-11.7043" x2="34" y2="42.2956" gradientUnits="userSpaceOnUse">
<stop stop-color="#C10404"/>
<stop offset="0.604588" stop-color="#C10404" stop-opacity="0.1"/>
<stop offset="1" stop-color="#C10404" stop-opacity="0"/>
</linearGradient>
</defs>
</svg>
