<svg width="84" height="38" viewBox="0 0 84 38" fill="none" xmlns="http://www.w3.org/2000/svg">
<path opacity="0.3" d="M21 27.4335C2.5 10.9335 1 22.574 1 22.574V37.1829H83V12.2783C83 12.2783 78.8682 9.34419 73 12.2783C70 13.7783 71.5 15.2783 68 15.2783C62.4098 15.2783 65.8281 3.87256 58.5 1.2783C48.2896 -2.33632 53.859 23.9418 43.5 20.7783C37.2252 18.862 38.9777 13.6158 32.5 12.574C24.4007 11.2714 24.5 30.5552 21 27.4335Z" fill="url(#paint0_linear_62_1038)"/>
<path d="M1 22.574C1 22.574 4.26062 11.6602 17 25.2783C26.5 35.4336 24 10.9248 32.5 12.2783C38.9793 13.3101 37.2252 18.6578 43.5 20.574C53.859 23.7376 47 -0.566409 58.5 1.27832C66.1757 2.50958 63.5 13.2783 67 14.7783C70.5 16.2783 70.5 12.7783 75 11.7783C79.5 10.7783 83 11.9336 83 11.9336" stroke="#C10404" stroke-linecap="round"/>
<defs>
<linearGradient id="paint0_linear_62_1038" x1="33.5" y1="-10.4261" x2="34" y2="43.5739" gradientUnits="userSpaceOnUse">
<stop stop-color="#C10404"/>
<stop offset="0.604588" stop-color="#C10404" stop-opacity="0.1"/>
<stop offset="1" stop-color="#C10404" stop-opacity="0"/>
</linearGradient>
</defs>
</svg>
