<svg width="85" height="37" viewBox="0 0 85 37" fill="none" xmlns="http://www.w3.org/2000/svg">
<path opacity="0.3" d="M24 11.3171C16.565 11.2409 17.5 21.5 13.5 27C9.5 32.5 0 27.8171 0 27.8171V37H84V1.69986C84 1.69986 77 10.8171 70 10.8171C63 10.8171 64 1.31703 59 0.817096C54 0.317168 55.9307 8.96355 51.5 10.8171C47.1693 12.6288 47.5 7 43 6.5C38.5 6 38.5 22.5 34 22.5C29.5 22.5 30.6786 11.3856 24 11.3171Z" fill="url(#paint0_linear_62_1026)"/>
<path d="M0.5 27.817C0.5 27.817 9.98145 31.7447 14 26.5C17.7947 21.5474 15.6908 13.7712 22 11.317C28.3092 8.86274 29.5 22 34 22C38.5 22 38.8269 1.63551 45 7.5C55 17 51.868 4.2723 57.5 1.317C63.3507 -1.75306 63.4507 11.6902 70 10.817C76.5493 9.94374 84 1.31698 84 1.31698" stroke="#0FAE96" stroke-linecap="round"/>
<defs>
<linearGradient id="paint0_linear_62_1026" x1="36" y1="-28.6193" x2="50.0479" y2="24.3663" gradientUnits="userSpaceOnUse">
<stop stop-color="#00A58C"/>
<stop offset="1" stop-color="#00A58C" stop-opacity="0"/>
</linearGradient>
</defs>
</svg>
