<svg width="84" height="38" viewBox="0 0 84 38" fill="none" xmlns="http://www.w3.org/2000/svg">
<path opacity="0.3" d="M17 25.1404C9.27755 27.14 1 22.4362 1 22.4362V37.183H83V15.1405C83 15.1405 78.8682 9.20637 73 12.1405C70 13.6405 71.5 15.1405 68 15.1405C62.4098 15.1405 65.8281 3.73475 58.5 1.14049C48.2896 -2.47413 53.859 23.804 43.5 20.6404C37.2252 18.7242 38.9777 13.4779 32.5 12.4362C24.4007 11.1336 24.9414 23.0842 17 25.1404Z" fill="url(#paint0_linear_62_1035)"/>
<path d="M1 22.4361C1 22.4361 9.29745 27.1502 17 25.1404C24.9029 23.0783 24.4342 10.856 32.5 12.1404C38.9793 13.1721 37.2252 18.5198 43.5 20.4361C53.859 23.5996 48.2896 -2.47423 58.5 1.14039C65.8281 3.73465 63.5 13.1404 67 14.6404C70.5 16.1404 70.5 12.6404 75 11.6404C79.5 10.6404 83.5 15.1404 83.5 15.1404" stroke="#C10404" stroke-linecap="round"/>
<defs>
<linearGradient id="paint0_linear_62_1035" x1="33.5" y1="-10.5639" x2="34" y2="43.4361" gradientUnits="userSpaceOnUse">
<stop stop-color="#C10404"/>
<stop offset="0.604588" stop-color="#C10404" stop-opacity="0.1"/>
<stop offset="1" stop-color="#C10404" stop-opacity="0"/>
</linearGradient>
</defs>
</svg>
